# xmcd CD database file
#
# Track frame offsets:
#	150
#	15866
#	30478
#	46410
#	60986
#	77370
#	90913
#	106334
#	122063
#	137185
#	152953
#	167803
#	182476
#	196617
#	211341
#	226204
#
# Disc length: 3209 seconds
#
# Revision: 3
# Processed by: cddbd v1.5.1PL0 Copyright (c) Steve Scherf et al.
# Submitted via: CDex 1.51
#
DISCID=b60c8710
DTITLE=Banda Sayonara - 45 Graus
DYEAR=2005
DGENRE=Salsa
TTITLE0=Pra Sempre no Seu Coração
TTITLE1=Diga
TTITLE2=Risco de Amor
TTITLE3=A Força de um Amor
TTITLE4=Raio de Sol
TTITLE5=Jogo de Palavras
TTITLE6=Desabafo
TTITLE7=O Fogo e a Lenha
TTITLE8=Beleza Letal
TTITLE9=Zucumbia
TTITLE10=Leito da Paixão
TTITLE11=O Pintor e o Pincel
TTITLE12=Inópia
TTITLE13=Furacão
TTITLE14=Cicatriz
TTITLE15=Mal de Amor
EXTD=YEAR: 2005
EXTT0=
EXTT1=
EXTT2=
EXTT3=
EXTT4=
EXTT5=
EXTT6=
EXTT7=
EXTT8=
EXTT9=
EXTT10=
EXTT11=
EXTT12=
EXTT13=
EXTT14=
EXTT15=
PLAYORDER=
